<svg width="512" height="512" viewBox="0 0 512 512" fill="none" xmlns="http://www.w3.org/2000/svg">
<g clip-path="url(#clip0_2247_1476)">
<path d="M412 0H100C44.7715 0 0 44.7715 0 100V412C0 467.228 44.7715 512 100 512H412C467.228 512 512 467.228 512 412V100C512 44.7715 467.228 0 412 0Z" fill="#18181B"/>
<path d="M91.944 218.496C93.1275 214.954 93.0092 207.399 91.589 195.83C91.589 192.053 90.5238 186.504 88.3936 179.185C72.2982 181.782 63.7771 183.081 62.8303 183.081C54.5459 184.261 48.7468 184.852 45.433 184.852C42.356 184.852 40.344 184.734 39.3972 184.498C37.5037 184.025 36.5569 182.019 36.5569 178.477C36.5569 174.7 37.5037 171.394 39.3972 168.561C41.2908 165.492 43.066 163.603 44.7229 162.895C48.2734 160.77 53.4807 158.527 60.3449 156.166C60.3449 155.694 66.144 153.805 77.7422 150.5C85.0798 147.194 94.4293 144.833 105.791 143.417C106.738 143.18 107.448 143.062 107.921 143.062L113.957 142H124.253L132.419 144.479C135.496 145.423 140.349 148.847 146.977 154.749L147.687 156.874C149.58 158.291 150.527 159.235 150.527 159.707C150.527 160.18 150.645 160.888 150.882 161.832C150.882 167.735 149.225 171.276 145.911 172.457C144.965 172.693 142.361 172.575 138.1 172.102C130.052 171.158 124.963 171.394 122.833 172.811C122.833 175.172 123.188 177.179 123.898 178.831C124.608 180.248 126.028 186.504 128.159 197.601C128.159 199.254 129.105 204.33 130.999 212.829C133.129 221.093 134.431 230.419 134.905 240.807C137.508 246.473 138.81 262.174 138.81 287.908C139.047 289.325 139.165 291.332 139.165 293.929C138.455 295.345 138.1 298.887 138.1 304.553C137.627 306.442 137.39 308.803 137.39 311.636C136.917 313.289 136.561 315.414 136.325 318.011C136.088 320.372 135.851 322.26 135.615 323.677C134.905 327.691 133.839 330.406 132.419 331.822C131.236 333.003 130.289 336.426 129.579 342.093C129.579 342.565 128.632 344.217 126.739 347.051C125.082 349.884 123.543 351.773 122.123 352.717L119.283 355.904C119.283 357.321 116.916 360.39 112.182 365.112L109.696 367.945C108.276 368.89 105.199 371.959 100.465 377.153C100.228 378.097 97.3881 379.396 91.944 381.049C86.7367 382.701 81.0559 382.701 74.9018 381.049C71.5881 380.577 68.0376 378.452 64.2504 374.674C63.3037 374.91 62.7119 374.91 62.4752 374.674C60.5816 372.785 56.7945 370.66 51.1138 368.299C50.6404 368.772 47.8 366.647 42.5926 361.925C41.4092 361.689 37.0303 357.203 29.456 348.467C29.2193 347.287 28.0358 344.572 25.9055 340.322C25.9055 340.086 25.3138 338.197 24.1303 334.656C23.1835 330.878 22.4734 325.566 22 318.719V316.24C22 314.823 23.4202 310.574 26.2606 303.491C30.9945 298.06 36.9119 297.942 44.0128 303.137C44.7229 306.914 46.0248 310.337 47.9183 313.407C49.8119 316.24 51.1138 318.955 51.8238 321.552C53.4807 327.455 57.7413 334.301 64.6055 342.093C67.2092 344.69 70.7596 346.106 75.2569 346.342C76.2037 346.106 79.8725 343.273 86.2633 337.843C87.2101 336.898 88.1569 335.246 89.1037 332.885C91.4706 329.579 92.6541 327.573 92.6541 326.864C92.8908 326.156 93.4826 324.503 94.4293 321.906C94.4293 321.67 95.3761 319.073 97.2697 314.115C99.4 310.337 99.8734 304.671 98.6899 297.116C98.4532 296.88 98.3349 296.054 98.3349 294.637C97.6248 288.971 97.1514 285.547 96.9147 284.367V281.179C96.678 280.943 96.5596 280.589 96.5596 280.117L97.2697 273.034C96.3229 271.617 95.2578 267.84 94.0743 261.701C91.7073 251.549 91.4706 243.286 93.3642 236.911C93.3642 236.675 93.1275 235.731 92.6541 234.078C92.1807 232.189 92.0624 230.419 92.2991 228.766L91.944 218.496Z" fill="white"/>
<path d="M327.183 322.863C327.654 322.153 327.654 320.498 327.183 317.895C326.24 309.38 326.122 303.466 326.829 300.154C325.886 287.381 325.533 279.929 325.768 277.801C326.24 275.672 326.947 274.489 327.89 274.252C326.947 272.833 326.004 267.629 325.061 258.64C324.354 249.651 324.236 243.619 324.708 240.544C324.236 238.652 324.118 236.405 324.354 233.803C324.59 230.964 324.943 229.072 325.415 228.125C324.943 227.652 324.59 225.878 324.354 222.803V206.836L325.061 197.611V189.805L327.183 178.805C326.476 177.622 327.065 175.493 328.951 172.418C326.593 167.451 329.068 161.301 336.376 153.968C336.611 153.494 339.322 151.957 344.508 149.355C348.751 149.118 351.579 149.118 352.993 149.355C354.643 149.591 357.001 149.828 360.065 150.065C363.365 150.301 365.84 150.656 367.49 151.129C371.733 152.548 373.854 156.333 373.854 162.483V168.515C374.326 177.031 374.561 183.418 374.561 187.676V195.482C374.561 198.557 374.326 200.331 373.854 200.804C374.09 201.75 374.09 203.997 373.854 207.546V213.578C373.147 220.911 372.911 225.169 373.147 226.351L370.672 245.157C372.558 245.867 379.276 246.221 390.826 246.221H408.504C418.876 246.221 425.358 246.221 427.951 246.221C430.779 245.985 432.547 245.157 433.254 243.738C434.197 242.318 434.904 240.426 435.376 238.06C435.847 235.695 436.201 232.975 436.436 229.9C436.672 226.824 436.908 224.932 437.143 224.222C438.558 223.04 438.911 217.954 438.204 208.965C438.204 208.255 438.676 206.481 439.618 203.643C439.618 200.331 440.09 196.546 441.033 192.288C441.033 187.794 441.74 183.891 443.154 180.579C444.804 177.031 445.982 174.074 446.689 171.709C447.868 167.687 450.697 164.257 455.175 161.419C461.068 157.161 466.725 154.441 472.147 153.258H478.511C484.875 154.441 486.997 160.473 484.875 171.354C484.875 174.902 483.932 179.515 482.047 185.192C479.925 196.31 478.864 203.524 478.864 206.836C478.864 210.148 477.922 216.18 476.036 224.932C476.507 229.426 476.507 232.383 476.036 233.803C475.8 235.222 475.682 236.996 475.682 239.125C475.211 244.329 474.975 247.877 474.975 249.77C474.504 256.866 474.268 262.543 474.268 266.801C474.268 271.059 473.914 275.672 473.207 280.639C473.207 285.607 472.382 290.692 470.732 295.896L469.672 318.605C469.672 320.261 470.497 332.443 472.147 355.152C473.561 356.571 474.032 359.41 473.561 363.668C473.089 367.689 472.264 370.527 471.086 372.183C469.907 373.839 468.611 374.785 467.197 375.022C466.018 375.258 464.132 375.377 461.539 375.377C456.118 378.452 451.757 379.635 448.457 378.925C445.629 378.925 442.682 377.979 439.618 376.086C434.668 373.484 431.486 370.291 430.072 366.506C430.072 364.85 429.718 362.84 429.011 360.474C428.54 358.109 428.54 355.625 429.011 353.023C429.483 350.184 429.601 347.227 429.365 344.152C429.365 341.077 429.365 337.529 429.365 333.508L429.718 329.25C429.247 328.304 429.483 326.766 430.426 324.637C431.368 322.508 431.486 320.852 430.779 319.67V310.089L432.547 291.993C430.19 290.338 430.072 286.435 432.193 280.284L432.901 277.446C430.072 278.155 427.479 278.51 425.122 278.51C418.522 280.166 411.215 280.994 403.201 280.994L371.379 279.929V283.833C370.908 287.617 370.79 293.294 371.026 300.864V307.606C371.261 313.756 371.379 322.508 371.379 333.862C372.322 346.163 372.793 355.034 372.793 360.474L372.44 362.958C372.44 364.85 372.204 366.506 371.733 367.925C371.733 372.42 370.554 375.495 368.197 377.151C366.076 378.807 362.54 379.871 357.59 380.344C352.64 380.817 348.161 379.516 344.154 376.441C338.497 373.603 335.551 371.237 335.315 369.345C335.079 367.452 334.372 364.969 333.193 361.893C332.015 360.001 331.19 357.754 330.718 355.152C330.718 347.582 330.601 343.324 330.365 342.378C329.658 341.432 329.304 339.776 329.304 337.411C329.304 334.336 328.597 329.486 327.183 322.863Z" fill="#8E51FF"/>
<path d="M260.449 191.655C259.978 195.911 259.743 200.286 259.743 204.778C259.743 213.291 259.272 220.975 258.331 227.833C257.389 234.69 256.801 239.419 256.565 242.02C256.33 244.384 255.977 246.749 255.506 249.113V251.596C255.506 255.852 254.565 260.108 252.682 264.365L251.622 280.325L250.21 314.02V331.754C250.21 340.739 249.739 345.586 248.798 346.296L249.151 355.517V359.419L248.798 363.675C248.798 364.621 248.563 365.094 248.092 365.094C248.563 367.931 247.386 371.005 244.561 374.315C241.972 377.389 238.677 379.399 234.675 380.345L228.32 381.409C227.379 381.409 226.084 381.527 224.437 381.764C222.789 381.764 221.377 381.527 220.2 381.054C219.023 380.581 217.846 379.99 216.669 379.281C214.316 377.862 212.668 375.143 211.727 371.123C211.02 369.941 209.608 362.729 207.49 349.488C207.49 346.65 207.254 343.103 206.784 338.847L207.843 330.335V323.596C207.843 319.34 208.314 316.384 209.255 314.729C208.314 313.31 208.902 310.237 211.02 305.507C209.373 303.379 209.49 298.65 211.373 291.32C210.432 288.246 210.432 286.236 211.373 285.291C211.844 283.872 212.08 280.562 212.08 275.36L212.433 271.813C212.433 264.956 213.139 258.69 214.551 253.015C214.08 252.305 214.08 250.414 214.551 247.34C215.022 244.266 215.375 240.601 215.61 236.345V233.862C215.846 230.315 215.963 226.532 215.963 222.512L216.316 219.32C216.316 217.902 216.552 215.064 217.022 210.808C217.729 206.552 218.317 202.059 218.788 197.33H218.082C193.132 204.187 177.833 207.616 172.184 207.616L166.182 207.97C162.651 207.97 159.003 207.379 155.237 206.197C153.354 205.251 151.941 202.769 151 198.749C151 190.946 152.648 185.271 155.943 181.724C159.473 178.177 165.946 174.867 175.361 171.793C177.715 171.557 192.308 166.591 219.141 156.897L234.322 153.35C237.147 152.404 241.619 151.931 247.739 151.931C253.858 151.931 258.919 151.222 262.92 149.803C267.157 148.148 271.747 146.966 276.69 146.256C281.633 145.31 286.811 144.365 292.225 143.419C294.814 142.473 299.522 142.709 306.347 144.128C308.937 144.128 313.056 146.847 318.705 152.286L320.823 157.251C320.823 158.67 321.176 159.734 321.882 160.443C322.824 166.828 321.411 170.966 317.645 172.857C316.233 173.567 313.762 174.512 310.231 175.695C305.524 175.695 293.755 178.059 274.925 182.788C273.983 182.788 269.276 183.498 260.802 184.916L260.449 189.527V191.655Z" fill="white"/>
</g>
<defs>
<clipPath id="clip0_2247_1476">
<rect width="512" height="512" fill="white"/>
</clipPath>
</defs>
</svg>
