<svg width="512" height="512" viewBox="0 0 512 512" fill="none" xmlns="http://www.w3.org/2000/svg">
<g clip-path="url(#clip0_2242_1474)">
<path d="M412 0H100C44.7715 0 0 44.7715 0 100V412C0 467.228 44.7715 512 100 512H412C467.228 512 512 467.228 512 412V100C512 44.7715 467.228 0 412 0Z" fill="#18181B"/>
<g clip-path="url(#clip1_2242_1474)">
<path d="M270 394V118H341.6V229.763H392V118H463.6V394H392V273.378H341.6V394H270Z" fill="#43DA7B"/>
</g>
<g clip-path="url(#clip2_2242_1474)">
<path d="M149.2 393.339C124.933 393.339 105.733 389.813 91.6 382.762C77.4667 375.711 67.3333 365.574 61.2 352.352C55.0667 339.131 52 323.375 52 305.085V205.593C52 187.083 55.0667 171.327 61.2 158.326C67.3333 145.325 77.4667 135.409 91.6 128.577C105.733 121.526 124.933 118 149.2 118C173.734 118 193.067 121.526 207.2 128.577C221.6 135.409 231.867 145.325 238 158.326C244.134 171.327 247.2 187.083 247.2 205.593V305.085C247.2 323.375 244.134 339.131 238 352.352C231.867 365.574 221.6 375.711 207.2 382.762C193.067 389.813 173.734 393.339 149.2 393.339ZM149.2 351.361C156.667 351.361 162.134 349.818 165.6 346.733C169.067 343.648 171.334 339.682 172.4 334.834C173.467 329.986 174 325.027 174 319.959V191.049C174 185.761 173.467 180.803 172.4 176.175C171.334 171.327 169.067 167.361 165.6 164.276C162.134 161.191 156.667 159.648 149.2 159.648C142.267 159.648 137.067 161.191 133.6 164.276C130.133 167.361 127.867 171.327 126.8 176.175C125.733 180.803 125.2 185.761 125.2 191.049V319.959C125.2 325.027 125.6 329.986 126.4 334.834C127.467 339.682 129.6 343.648 132.8 346.733C136.267 349.818 141.733 351.361 149.2 351.361Z" fill="white"/>
</g>
</g>
<defs>
<clipPath id="clip0_2242_1474">
<rect width="512" height="512" fill="white"/>
</clipPath>
<clipPath id="clip1_2242_1474">
<rect width="194" height="276" fill="white" transform="translate(270 118)"/>
</clipPath>
<clipPath id="clip2_2242_1474">
<rect width="196" height="276" fill="white" transform="translate(52 118)"/>
</clipPath>
</defs>
</svg>
